ffmpeg version 2.8.11-0ubuntu0.16.04.1 Copyright (c) 2000-2017 the FFmpeg developers
  built with gcc 5.4.0 (Ubuntu 5.4.0-6ubuntu1~16.04.4) 20160609
  configuration: --prefix=/usr --extra-version=0ubuntu0.16.04.1 --build-suffix=-ffmpeg --toolchain=hardened --libdir=/usr/lib/x86_64-linux-gnu --incdir=/usr/include/x86_64-linux-gnu --cc=cc --cxx=g++ --enable-gpl --enable-shared --disable-stripping --disable-decoder=libopenjpeg --disable-decoder=libschroedinger --enable-avresample --enable-avisynth --enable-gnutls --enable-ladspa --enable-libass --enable-libbluray --enable-libbs2b --enable-libcaca --enable-libcdio --enable-libflite --enable-libfontconfig --enable-libfreetype --enable-libfribidi --enable-libgme --enable-libgsm --enable-libmodplug --enable-libmp3lame --enable-libopenjpeg --enable-libopus --enable-libpulse --enable-librtmp --enable-libschroedinger --enable-libshine --enable-libsnappy --enable-libsoxr --enable-libspeex --enable-libssh --enable-libtheora --enable-libtwolame --enable-libvorbis --enable-libvpx --enable-libwavpack --enable-libwebp --enable-libx265 --enable-libxvid --enable-libzvbi --enable-openal --enable-opengl --enable-x11grab --enable-libdc1394 --enable-libiec61883 --enable-libzmq --enable-frei0r --enable-libx264 --enable-libopencv
  libavutil      54. 31.100 / 54. 31.100
  libavcodec     56. 60.100 / 56. 60.100
  libavformat    56. 40.101 / 56. 40.101
  libavdevice    56.  4.100 / 56.  4.100
  libavfilter     5. 40.101 /  5. 40.101
  libavresample   2.  1.  0 /  2.  1.  0
  libswscale      3.  1.101 /  3.  1.101
  libswresample   1.  2.101 /  1.  2.101
  libpostproc    53.  3.100 / 53.  3.100
[mp3 @ 0x146a8c0] Unknown attached picture mimetype: ('image/png', None), skipping.
[mp3 @ 0x146a8c0] Skipping 0 bytes of junk at 17522.
Input #0, mp3, from 'jan-kochanowski-piesni-ksiegi-wtore-piesn-v-wieczna-sromota-i-nienagrodzona.mp3':
  Metadata:
    title           : Jan Kochanowski, Pieśni, Księgi wtóre, Pieśń V (Wieczna sromota i nienagrodzona...)
    artist          : Krzysztof Skonieczny
    album           : Wolne Lektury
    encoder         : Lavf53.21.0
    genre           : Speech
    originator_reference: Rv27#aG3JWmaaaGk
    date            : 2008-10-30
    performer       : Iwo Vedral
    album_artist    : Fundacja Nowoczesna Polska
    time_reference  : 361154672
    copyright       : 2008 Fundacja Nowoczesna Polska. Licensed to the public under http://creativecommons.org/licenses/by-sa/3.0/deed.pl verify at http://wolnelektury.pl/katalog/lektura/piesni-ksiegi-wtore-piesn-v/
    creation_time   : 0014-59-06
    encoded_by      : Pro Tools
    publisher       : Fundacja Nowoczesna Polska
  Duration: 00:02:38.17, start: 0.000000, bitrate: 64 kb/s
    Stream #0:0: Audio: mp3, 44100 Hz, mono, s16p, 64 kb/s
Output #0, null, to 'pipe:':
  Metadata:
    title           : Jan Kochanowski, Pieśni, Księgi wtóre, Pieśń V (Wieczna sromota i nienagrodzona...)
    artist          : Krzysztof Skonieczny
    album           : Wolne Lektury
    publisher       : Fundacja Nowoczesna Polska
    genre           : Speech
    originator_reference: Rv27#aG3JWmaaaGk
    date            : 2008-10-30
    performer       : Iwo Vedral
    album_artist    : Fundacja Nowoczesna Polska
    time_reference  : 361154672
    copyright       : 2008 Fundacja Nowoczesna Polska. Licensed to the public under http://creativecommons.org/licenses/by-sa/3.0/deed.pl verify at http://wolnelektury.pl/katalog/lektura/piesni-ksiegi-wtore-piesn-v/
    encoded_by      : Pro Tools
    encoder         : Lavf56.40.101
    Stream #0:0: Audio: pcm_s16le, 44100 Hz, mono, s16, 705 kb/s
    Metadata:
      encoder         : Lavc56.60.100 pcm_s16le
Stream mapping:
  Stream #0:0 -> #0:0 (mp3 (native) -> pcm_s16le (native))
Press [q] to stop, [?] for help
[silencedetect @ 0x147daa0] silence_start: -0.00367347
[silencedetect @ 0x147daa0] silence_end: 0.679184 | silence_duration: 0.682857
[silencedetect @ 0x147daa0] silence_start: 1.69429
[silencedetect @ 0x147daa0] silence_end: 2.58612 | silence_duration: 0.891837
[silencedetect @ 0x147daa0] silence_start: 3.1049
[silencedetect @ 0x147daa0] silence_end: 3.65714 | silence_duration: 0.552245
[silencedetect @ 0x147daa0] silence_start: 4.46327
[silencedetect @ 0x147daa0] silence_end: 5.25061 | silence_duration: 0.787347
[silencedetect @ 0x147daa0] silence_start: 6.05673
[silencedetect @ 0x147daa0] silence_end: 6.76571 | silence_duration: 0.70898
[silencedetect @ 0x147daa0] silence_start: 10.5498
[silencedetect @ 0x147daa0] silence_end: 11.3371 | silence_duration: 0.787347
[silencedetect @ 0x147daa0] silence_start: 18.0731
[silencedetect @ 0x147daa0] silence_end: 18.9649 | silence_duration: 0.891837
[silencedetect @ 0x147daa0] silence_start: 21.3122
[silencedetect @ 0x147daa0] silence_end: 21.9429 | silence_duration: 0.630612
[silencedetect @ 0x147daa0] silence_start: 29.6976
[silencedetect @ 0x147daa0] silence_end: 30.6416 | silence_duration: 0.944082
[silencedetect @ 0x147daa0] silence_start: 35.4445
[silencedetect @ 0x147daa0] silence_end: 36.1535 | silence_duration: 0.70898
[silencedetect @ 0x147daa0] silence_start: 41.8967
[silencedetect @ 0x147daa0] silence_end: 42.6057 | silence_duration: 0.70898
[silencedetect @ 0x147daa0] silence_start: 48.0094
[silencedetect @ 0x147daa0] silence_end: 48.6661 | silence_duration: 0.656735
[silencedetect @ 0x147daa0] silence_start: 53.6518
[silencedetect @ 0x147daa0] silence_end: 54.622 | silence_duration: 0.970204
[silencedetect @ 0x147daa0] silence_start: 64.3882
[silencedetect @ 0x147daa0] silence_end: 64.9927 | silence_duration: 0.60449
[silencedetect @ 0x147daa0] silence_start: 69.8478
[silencedetect @ 0x147daa0] silence_end: 70.5567 | silence_duration: 0.70898
[silencedetect @ 0x147daa0] silence_start: 76.1433
[silencedetect @ 0x147daa0] silence_end: 77.1396 | silence_duration: 0.996327
[silencedetect @ 0x147daa0] silence_start: 85.1555
[silencedetect @ 0x147daa0] silence_end: 86.1257 | silence_duration: 0.970204
[silencedetect @ 0x147daa0] silence_start: 90.4322
[silencedetect @ 0x147daa0] silence_end: 91.7682 | silence_duration: 1.33592
[silencedetect @ 0x147daa0] silence_start: 103.258
[silencedetect @ 0x147daa0] silence_end: 105.012 | silence_duration: 1.75388
[silencedetect @ 0x147daa0] silence_start: 107.516
[silencedetect @ 0x147daa0] silence_end: 108.382 | silence_duration: 0.865714
[silencedetect @ 0x147daa0] silence_start: 110.964
[silencedetect @ 0x147daa0] silence_end: 111.726 | silence_duration: 0.761224
[silencedetect @ 0x147daa0] silence_start: 117.208
[silencedetect @ 0x147daa0] silence_end: 118.23 | silence_duration: 1.02245
[silencedetect @ 0x147daa0] silence_start: 120.342
[silencedetect @ 0x147daa0] silence_end: 120.973 | silence_duration: 0.630612
[silencedetect @ 0x147daa0] silence_start: 122.929
[silencedetect @ 0x147daa0] silence_end: 123.585 | silence_duration: 0.656735
[silencedetect @ 0x147daa0] silence_start: 128.649
[silencedetect @ 0x147daa0] silence_end: 129.75 | silence_duration: 1.10082
[silencedetect @ 0x147daa0] silence_start: 134.292
[silencedetect @ 0x147daa0] silence_end: 135.131 | silence_duration: 0.839592
[silencedetect @ 0x147daa0] silence_start: 140.431
[silencedetect @ 0x147daa0] silence_end: 141.349 | silence_duration: 0.917959
[silencedetect @ 0x147daa0] silence_start: 142.651
[silencedetect @ 0x147daa0] silence_end: 143.256 | silence_duration: 0.60449
[silencedetect @ 0x147daa0] silence_start: 145.289
[silencedetect @ 0x147daa0] silence_end: 145.894 | silence_duration: 0.60449
[silencedetect @ 0x147daa0] silence_start: 151.036
[silencedetect @ 0x147daa0] silence_end: 151.876 | silence_duration: 0.839592
[silencedetect @ 0x147daa0] silence_start: 153.413
[silencedetect @ 0x147daa0] silence_end: 153.94 | silence_duration: 0.526122
[silencedetect @ 0x147daa0] silence_start: 155.634
size=N/A time=00:02:38.17 bitrate=N/A    
video:0kB audio:13624kB subtitle:0kB other streams:0kB global headers:0kB muxing overhead: unknown
